<svg xmlns="http://www.w3.org/2000/svg" viewBox="0 0 64 64" fill="none">
  <!-- Background circle -->
  <circle cx="32" cy="32" r="30" fill="#3B82F6"/>

  <!-- Document icon -->
  <path d="M20 14h16l10 10v26a2 2 0 0 1-2 2H20a2 2 0 0 1-2-2V16a2 2 0 0 1 2-2z" fill="white"/>

  <!-- Folded corner -->
  <path d="M36 14v10h10" fill="none" stroke="#3B82F6" stroke-width="2"/>
  <path d="M36 14l10 10H36V14z" fill="#DBEAFE"/>

  <!-- Chart bars -->
  <rect x="23" y="34" width="4" height="12" rx="1" fill="#3B82F6"/>
  <rect x="30" y="30" width="4" height="16" rx="1" fill="#10B981"/>
  <rect x="37" y="36" width="4" height="10" rx="1" fill="#3B82F6"/>

  <!-- Lines representing text -->
  <rect x="23" y="28" width="18" height="2" rx="1" fill="#CBD5E1"/>
</svg>
